<?xml version="1.0" encoding="UTF-8"?>
<svg version="1.1" xmlns="http://www.w3.org/2000/svg" width="512" height="512">
<path d="M0 0 C13.09067267 5.81968959 26.15032801 11.47111796 40.19262695 14.57348633 C41.05500977 14.77651367 41.91739258 14.97954102 42.8059082 15.1887207 C68.48966884 21.09325748 98.8883096 19.61070461 122.00512695 6.01098633 C128.55900914 1.74409386 135.19986529 -3.12573934 139.84106445 -9.50463867 C140.28708008 -10.07698242 140.7330957 -10.64932617 141.19262695 -11.23901367 C141.85262695 -11.23901367 142.51262695 -11.23901367 143.19262695 -11.23901367 C140.88871257 -1.25538468 132.17668857 6.88238222 124.19262695 12.76098633 C92.72416286 32.0816351 56.6223754 27.99798789 21.90356445 21.82739258 C-1.56977627 17.70871934 -25.55069123 18.24251905 -46.0144043 31.90161133 C-56.8501501 40.38047125 -66.1330884 52.43182453 -68.5612793 66.30004883 C-70.45151506 85.20240647 -65.48304285 100.91743443 -54.11987305 115.88598633 C-51.52073533 119.04292985 -48.73809045 121.91400371 -45.80737305 124.76098633 C-45.14737305 125.75098633 -44.48737305 126.74098633 -43.80737305 127.76098633 C-71.10430481 119.90955886 -94.33310453 88.33873127 -107.63842773 64.89916992 C-110.48775785 59.6873 -112.80235636 54.35698146 -114.80737305 48.76098633 C-115.21858398 47.64208008 -115.62979492 46.52317383 -116.0534668 45.37036133 C-120.34484724 31.88740826 -121.56881311 14.47500655 -116.0690918 1.19848633 C-109.82824116 -10.85814153 -102.70119803 -16.82981739 -89.80737305 -21.23901367 C-60.14287784 -29.08702488 -26.366635 -11.73105982 0 0 Z " fill="#09A7C2" transform="translate(220.807373046875,184.239013671875)"/>
<path d="M0 0 C4.44272296 4.1598788 7.88561211 8.4178478 10.8125 13.75 C11.15152344 14.3378125 11.49054688 14.925625 11.83984375 15.53125 C15.81796598 23.89080639 14.84318505 35.47359814 12.25 44.125 C7.05787779 57.56986383 -3.45970989 68.2355271 -16.1875 74.75 C-23.3036539 77.72338105 -30.52824049 79.82696103 -38.1875 80.75 C-37.341875 81.245 -36.49625 81.74 -35.625 82.25 C-29.55535141 86.30602109 -24.99413038 92.04389201 -22.1875 98.75 C-20.91981994 107.66601643 -21.85454401 115.38997656 -27.1875 122.75 C-32.34954338 128.96916397 -40.47961608 132.7559879 -48.36328125 134.12890625 C-50.69049174 134.19668908 -52.87059272 134.00743414 -55.1875 133.75 C-56.62108141 133.61835514 -58.05467652 133.48685944 -59.48828125 133.35546875 C-61.05501188 133.19851746 -62.62142102 133.03832545 -64.1875 132.875 C-65.33835083 132.75789673 -65.33835083 132.75789673 -66.51245117 132.63842773 C-68.4140873 132.4149444 -70.30332595 132.0906654 -72.1875 131.75 C-72.5175 131.09 -72.8475 130.43 -73.1875 129.75 C-74.99635093 129.12348802 -74.99635093 129.12348802 -77.25 128.625 C-83.14212239 127.01573536 -88.27633369 124.26489225 -93.56469727 121.26708984 C-97.5175321 119.11812622 -97.5175321 119.11812622 -101.8828125 119.3125 C-104.26730704 120.79977795 -106.51557496 122.35738039 -108.75 124.0625 C-121.26942341 133.03975122 -134.20250772 134.90753924 -149.1875 133.75 C-159.29755219 131.95848962 -168.7596932 126.40248473 -175.25 118.375 C-178.58609655 113.02994019 -179.87277098 106.67361911 -178.5625 100.5 C-175.64925168 92.5547773 -171.38979682 88.82031211 -164.1875 84.75 C-153.11129427 79.6934713 -141.2836477 82.02126601 -130.1875 85.75 C-122.71002353 88.62711868 -115.61396825 92.30351501 -108.703125 96.33984375 C-107.97681885 96.76241455 -107.2505127 97.18498535 -106.50219727 97.62036133 C-105.11217113 98.44021032 -103.73180063 99.27671668 -102.36303711 100.1315918 C-98.92503016 102.30812547 -98.92503016 102.30812547 -95.0234375 102.28515625 C-86.02425891 94.76031117 -76.46812797 83.31125593 -71.1875 72.75 C-72.46625 72.54375 -73.745 72.3375 -75.0625 72.125 C-83.6887606 70.18239328 -91.39974743 65.26879452 -96.1875 57.75 C-97.4375 54.375 -97.4375 54.375 -98.1875 51.75 C-98.8475 51.42 -99.5075 51.09 -100.1875 50.75 C-103.01560381 38.52529321 -101.92749972 25.91594011 -95.609375 15.03125 C-86.43208408 1.30665278 -72.4643057 -8.8278712 -56.24414062 -12.71582031 C-36.22450353 -16.61895785 -15.73532952 -13.46400963 0 0 Z M-83.36328125 10.515625 C-88.64748094 16.98792098 -91.72478971 23.4212147 -92.1875 31.75 C-92.6825 32.245 -92.6825 32.245 -93.1875 32.75 C-94.18158354 42.21291065 -92.18091404 51.25823245 -86.1875 58.75 C-82.02723084 63.67440023 -77.77522279 67.71663172 -71.1875 68.75 C-68.14014224 68.5184953 -66.64805474 68.16895625 -64.37109375 66.09765625 C-59.03167982 59.10983265 -54.18626871 51.83779368 -49.34375 44.5 C-27.97681443 12.21100804 -27.97681443 12.21100804 -16.0625 8.875 C-12.7466141 8.73083105 -11.04068397 9.05351223 -8.1875 10.75 C-5.0170178 14.35779009 -4.71284698 17.69346156 -4.91796875 22.3125 C-6.35908318 35.34518703 -14.98188172 48.15280313 -24.546875 56.91015625 C-29.84640214 61.12726363 -35.13417185 64.71260307 -41.1875 67.75 C-42.54488281 68.52730469 -42.54488281 68.52730469 -43.9296875 69.3203125 C-47.24225034 70.77402713 -49.80798868 71.20202198 -53.35351562 71.57006836 C-58.35512211 72.11898472 -62.71490508 72.60862704 -66.7578125 75.7421875 C-68.7872629 78.31392019 -70.48618728 80.95118866 -72.1875 83.75 C-73.66923371 85.76357027 -75.1699216 87.76330531 -76.6875 89.75 C-77.42871094 90.74773437 -78.16992188 91.74546875 -78.93359375 92.7734375 C-81.77609198 96.52730865 -84.74671518 100.16636448 -87.75390625 103.7890625 C-89.38422595 105.61424314 -89.38422595 105.61424314 -89.1875 107.75 C-86.95986012 108.56690177 -84.7305514 109.37861872 -82.5 110.1875 C-81.87416016 110.41759766 -81.24832031 110.64769531 -80.60351562 110.88476562 C-72.54459723 113.79610264 -64.77717336 115.12690201 -56.4375 112.625 C-51.4931964 109.77251716 -47.86886311 107.11205878 -46.25 101.5 C-45.9740064 98.78746987 -45.9740064 98.78746987 -47.1875 96.75 C-46.1975 97.41 -45.2075 98.07 -44.1875 98.75 C-43.39655323 103.13122475 -43.73058087 107.43635749 -45.1875 111.625 C-49.24175227 115.93264303 -54.82095087 118.33738671 -60.72265625 118.86328125 C-65.42898354 118.64698412 -70.0091961 117.53133365 -74.59765625 116.51953125 C-78.46586175 115.69032942 -82.25638753 115.15113393 -86.1875 114.75 C-86.1875 114.09 -86.1875 113.43 -86.1875 112.75 C-89.63482623 111.12128889 -89.63482623 111.12128889 -93.375 110.9375 C-95.55221811 111.72036438 -95.55221811 111.72036438 -97.1875 114.75 C-81.10076708 123.47537465 -64.33229978 130.96913055 -45.62109375 127.23828125 C-39.65536135 125.27989092 -34.9996997 121.55893446 -31.8125 116.1875 C-29.15172077 110.27341508 -29.12506198 103.66109995 -30.8125 97.44921875 C-34.04205621 90.02412301 -40.23100513 85.33197404 -47.5625 82.3125 C-50.79892738 81.09561704 -50.79892738 81.09561704 -54.1875 80.75 C-54.1875 79.76 -54.1875 78.77 -54.1875 77.75 C-52.86298828 77.69392578 -52.86298828 77.69392578 -51.51171875 77.63671875 C-33.81060222 76.66705501 -19.07308492 71.33072092 -6.1875 58.75 C1.88326776 49.34410523 5.94410695 39.17040546 5.8125 26.75 C5.04797477 17.4255226 0.84868629 8.08088838 -6.1875 1.75 C-30.80210024 -16.27486474 -62.56389408 -11.25411897 -83.36328125 10.515625 Z M-26.9765625 23.35546875 C-31.0480814 27.47504155 -34.49901547 31.86582241 -37.875 36.5625 C-38.75913574 37.77679688 -38.75913574 37.77679688 -39.66113281 39.015625 C-46.72358097 48.77300415 -53.50650354 58.72850532 -60.1875 68.75 C-46.10702705 68.2806509 -34.85216377 59.89755442 -25.5 49.9375 C-17.82292754 41.10819677 -11.82439613 31.55720771 -11.88671875 19.6328125 C-12.03715931 17.50920308 -12.03715931 17.50920308 -14.1875 15.75 C-19.66906462 15.75 -23.2488477 19.68420621 -26.9765625 23.35546875 Z M-168.6875 95.1875 C-171.5407893 100.06186922 -172.73865255 103.970978 -171.78125 109.671875 C-169.68000997 117.0262151 -164.68030267 121.99286283 -158.1875 125.75 C-146.67993787 131.15538698 -134.94523725 130.27551795 -123.25 126.125 C-117.32577623 123.63852134 -112.00757751 119.9836042 -107.1875 115.75 C-107.1875 115.09 -107.1875 114.43 -107.1875 113.75 C-109.53864592 112.61830299 -111.89309335 111.49458619 -114.25 110.375 C-114.90677734 110.05789063 -115.56355469 109.74078125 -116.24023438 109.4140625 C-123.47826528 105.99115133 -131.36545179 102.78810762 -139.33203125 105.47265625 C-143.67894733 107.46465676 -146.58217425 109.6249009 -149.1875 113.75 C-149.1875 114.41 -149.1875 115.07 -149.1875 115.75 C-150.5075 115.09 -151.8275 114.43 -153.1875 113.75 C-152.82503213 107.46722365 -152.82503213 107.46722365 -150.1875 104.5 C-142.16998827 99.82311816 -135.32798131 99.03765268 -126.1875 100.75 C-121.92177841 102.27558909 -117.95616439 104.23038475 -113.9375 106.3125 C-112.89464844 106.83263672 -111.85179687 107.35277344 -110.77734375 107.88867188 C-108.23793323 109.15837714 -105.70906324 110.44531216 -103.1875 111.75 C-101.1475281 110.38676257 -101.1475281 110.38676257 -99.1875 108.75 C-99.1875 108.09 -99.1875 107.43 -99.1875 106.75 C-133.52822995 85.54384105 -133.52822995 85.54384105 -168.6875 95.1875 Z " fill="#FBFDFD" transform="translate(338.1875,236.25)"/>
<path d="M0 0 C7.42203877 5.81393037 11.01474865 14.40088463 12.609375 23.52734375 C12.90373796 26.9906641 12.94334749 30.42778835 12.921875 33.90234375 C12.91623535 34.86841553 12.9105957 35.8344873 12.90478516 36.82983398 C12.3414759 70.72041506 -1.31030603 105.24341451 -22.390625 131.52734375 C-23.35548828 132.74164063 -23.35548828 132.74164063 -24.33984375 133.98046875 C-27.50113735 137.79322198 -29.6153626 139.88686245 -34.390625 141.52734375 C-33.81054688 140.67462891 -33.81054688 140.67462891 -33.21875 139.8046875 C-30.72598344 136.10872916 -28.28663035 132.43730046 -26.140625 128.52734375 C-24.390625 125.52734375 -24.390625 125.52734375 -22.390625 124.52734375 C-21.67252293 122.88218368 -21.01604908 121.20992122 -20.390625 119.52734375 C-19.96265625 118.58761719 -19.5346875 117.64789063 -19.09375 116.6796875 C-8.50258668 93.2481622 -1.56150806 66.40844896 -10.203125 41.24609375 C-11.82255589 37.53844934 -13.86899989 34.67937514 -16.390625 31.52734375 C-16.390625 30.86734375 -16.390625 30.20734375 -16.390625 29.52734375 C-16.90625 29.27984375 -17.421875 29.03234375 -17.953125 28.77734375 C-19.91218343 27.7726984 -21.81837859 26.66530385 -23.703125 25.52734375 C-36.20930914 18.4860468 -50.79149465 21.14568716 -64.02978516 24.81738281 C-78.17591453 29.07146184 -91.35954684 35.84230983 -104.59204102 42.30200195 C-120.46545168 50.04395465 -136.21911877 57.19579263 -153.390625 61.52734375 C-154.17824219 61.72714844 -154.96585938 61.92695313 -155.77734375 62.1328125 C-172.89183092 64.716614 -190.88658213 62.3091401 -205.390625 52.52734375 C-207.93983804 50.64003164 -210.11224371 48.75509435 -212.390625 46.52734375 C-212.390625 45.86734375 -212.390625 45.20734375 -212.390625 44.52734375 C-210.658125 45.14609375 -210.658125 45.14609375 -208.890625 45.77734375 C-207.06041052 46.37038999 -205.2265627 46.95225972 -203.390625 47.52734375 C-202.27300781 47.88699219 -201.15539062 48.24664062 -200.00390625 48.6171875 C-170.50156251 57.1373916 -143.31536214 47.6611641 -117.390625 33.52734375 C-107.01744146 27.71651897 -96.72520978 21.75010603 -86.5390625 15.6171875 C-62.63723066 1.23878402 -27.07772233 -16.68023091 0 0 Z " fill="#0CA7C2" transform="translate(396.390625,107.47265625)"/>
<path d="M0 0 C2.42087799 3.94985356 2.91557297 8.27030359 3.75 12.75 C5.05429529 19.31318357 6.65847077 25.60230665 9 31.875 C9.23686523 32.52178711 9.47373047 33.16857422 9.71777344 33.83496094 C11.52214496 38.45973408 13.60806789 42.8704765 18.25 45.0625 C30.04137126 44.79451429 40.66659685 31.42303831 48.23828125 23.7109375 C57.12921437 14.98348689 67.137882 5.71327229 80.08203125 4.86328125 C90.26158921 5.21177062 98.51450997 12.56929516 106.3125 18.4375 C111.34820325 22.22695446 116.43803842 25.59161387 122 28.5625 C122.59852783 28.88468506 123.19705566 29.20687012 123.8137207 29.53881836 C131.98605469 33.75676039 141.34354432 36.02540181 150.375 33.27734375 C158.61920806 29.42067824 164.00315764 21.99368473 168 14 C168.99 14.495 168.99 14.495 170 15 C167.12354347 25.94745513 163.64207583 35.44338844 154 42 C145.8539946 46.44164091 137.34848282 45.87881244 128.625 43.4375 C117.15152553 39.56316324 107.60859895 33.20976253 98 26 C95.74404719 24.35345614 93.46994099 22.73456384 91.1875 21.125 C90.14980469 20.38507813 89.11210937 19.64515625 88.04296875 18.8828125 C82.82084921 15.65166793 78.12451321 14.28547346 72 15 C57.38690698 20.07638644 46.99733243 33.97040299 37.25 45.375 C32.20176957 51.18591273 27.06167919 56.60693427 19.125 57.375 C14.73628877 57.22843822 12.32658884 55.95696785 9 53 C-0.12984324 42.40618773 -1.18056737 26.60469016 -1.125 13.25 C-1.12886719 12.30511719 -1.13273438 11.36023438 -1.13671875 10.38671875 C-1.13542969 9.48050781 -1.13414062 8.57429688 -1.1328125 7.640625 C-1.13168457 6.82110352 -1.13055664 6.00158203 -1.12939453 5.15722656 C-1 3 -1 3 0 0 Z " fill="#1BABC4" transform="translate(157,361)"/>
<path d="M0 0 C0.33 0.99 0.66 1.98 1 3 C1.99 3.33 2.98 3.66 4 4 C1.22619373 9.93073495 -2.354888 14.90389031 -6.5625 19.875 C-7.03341064 20.43405029 -7.50432129 20.99310059 -7.98950195 21.5690918 C-10.44838988 24.41943157 -12.87160113 26.89477159 -16 29 C-16.66 28.67 -17.32 28.34 -18 28 C-17.36191406 27.18015625 -16.72382813 26.3603125 -16.06640625 25.515625 C-15.23143164 24.42734349 -14.39681493 23.33878732 -13.5625 22.25 C-13.14162109 21.71117187 -12.72074219 21.17234375 -12.28710938 20.6171875 C-10.16038766 17.82692861 -8.47094788 15.52782776 -8 12 C-7.34 12 -6.68 12 -6 12 C-5.7525 11.319375 -5.505 10.63875 -5.25 9.9375 C-3.75802092 6.43134917 -1.93164489 3.28379632 0 0 Z " fill="#2CABC1" transform="translate(380,220)"/>
<path d="M0 0 C0.33 0.99 0.66 1.98 1 3 C1.99 3.33 2.98 3.66 4 4 C2.68 6.31 1.36 8.62 0 11 C-3 11 -3 11 -5 10 C-3.66511872 6.40608886 -2.03977277 3.24509304 0 0 Z " fill="#32AFC6" transform="translate(380,220)"/>
<path d="M0 0 C2.60018816 3.90028225 2.15085514 7.47434569 2 12 C1.34 12 0.68 12 0 12 C0 15.3 0 18.6 0 22 C-0.33 22 -0.66 22 -1 22 C-1.02903577 18.89585298 -1.0468107 15.79174091 -1.0625 12.6875 C-1.07087891 11.80642578 -1.07925781 10.92535156 -1.08789062 10.01757812 C-1.09111328 9.17001953 -1.09433594 8.32246094 -1.09765625 7.44921875 C-1.10289307 6.66893311 -1.10812988 5.88864746 -1.11352539 5.0847168 C-1 3 -1 3 0 0 Z " fill="#87CBD6" transform="translate(157,361)"/>
<path d="M0 0 C0.66 0 1.32 0 2 0 C0.58832253 5.26170694 -1.74850232 8.72171358 -5 13 C-5.66 12.67 -6.32 12.34 -7 12 C-5.6393389 6.80474854 -3.64232612 3.82444243 0 0 Z " fill="#1C9BB2" transform="translate(362,173)"/>
<path d="M0 0 C0.66 0 1.32 0 2 0 C2.33 0.99 2.66 1.98 3 3 C0.36 5.31 -2.28 7.62 -5 10 C-5.66 9.67 -6.32 9.34 -7 9 C-5.88266271 7.49428343 -4.75589965 5.99555708 -3.625 4.5 C-2.99851562 3.6646875 -2.37203125 2.829375 -1.7265625 1.96875 C-1.15679687 1.3190625 -0.58703125 0.669375 0 0 Z " fill="#43A8BB" transform="translate(369,239)"/>
<path d="M0 0 C2.97 0.99 5.94 1.98 9 3 C8.01 3.33 7.02 3.66 6 4 C6 4.66 6 5.32 6 6 C2.21503862 4.48601545 1.9927802 3.9855604 0 0 Z " fill="#219DB5" transform="translate(184,152)"/>
<path d="M0 0 C0.66 0 1.32 0 2 0 C1.6875 2.875 1.6875 2.875 1 6 C0.01 6.66 -0.98 7.32 -2 8 C-2.66 7.01 -3.32 6.02 -4 5 C-3.34 4.34 -2.68 3.68 -2 3 C-1.34 2.01 -0.68 1.02 0 0 Z " fill="#45BCD1" transform="translate(355,181)"/>
<path d="M0 0 C2.5654594 2.5654594 2.54046087 4.47686668 3 8 C2.01 8.33 1.02 8.66 0 9 C-0.84454356 5.62182575 -1.10844919 3.32534757 0 0 Z " fill="#13A1B7" transform="translate(158,369)"/>
<path d="M0 0 C-1.32 1.32 -2.64 2.64 -4 4 C-4.99 3.01 -5.98 2.02 -7 1 C-3.375 -1.125 -3.375 -1.125 0 0 Z " fill="#4CBDCF" transform="translate(382,228)"/>
</svg>
